<?xml version="1.0" encoding="UTF-8" standalone="no"?>
<svg width="1920" height="1080" xmlns="http://www.w3.org/2000/svg">
    <rect width="100%" height="100%" fill="rgb(100,100,100)" fill-opacity="100%"/>
    <g transform="translate(97,51) scale(0.9)">
        <rect width="100%" height="100%" fill="none" stroke="white" stroke-width="2"/>
        <rect y="0" x="32.5%" width="35%" height="11%" fill="white" stroke="white" stroke-width="2"/>
        <rect stroke="white" y="94%" x="0%" width="15%" height="6%" fill="none" stroke-width="2"/>
        <text font-weight="900" font-size="55px" y="7%" x="50%" text-anchor="middle" fill="rgb(100,100,100)" font-family ="Russo One">Main Title</text>
        <text x="310" y="85" text-anchor="middle" font-family="system-ui" font-size="50px">LEFT</text>
        <text x="1600" y="85" text-anchor="middle" font-family="system-ui" font-size="50px">RIGHT</text>
        <rect stroke="white" y="94%" x="0%" width="100%" height="6%" fill="none" stroke-width="2"/>
        <rect y="0" x="0" width="100%" height="11%" fill="none" stroke="white" stroke-width="2"/>
        <rect stroke="white" y="94%" x="0%" width="100%" height="6%" fill="none" stroke-width="2"/>
        <rect stroke="white" y="94%" x="85%" width="15%" height="6%" fill="white"/>
        <text y="98%" x="92%" text-anchor="middle" font-family="russo one" font-size="40px" fill="rgb(100,100,100)">UNIT</text>
        <text y="98%" x="3.4%" font-family="russo one" font-size="40px" fill="white">Legenda</text>
        <text y="98%" x="20%" font-family="russo one" fill="white" font-size="35px">FIRST</text>
        <rect width="2%" height="3.5%" y="95%" x="17%" fill="blue"/>
        <text y="98%" x="35%" font-family="russo one"  fill="white" font-size="35px">SECOND</text>
        <rect width="2%" height="3.5%" y="95%" x="32%" fill="rgb(0,0,200)"/>
        <g transform="translate(380,170) scale(0.7)">
            <rect width="100%" height="100%" fill="none"/>
            <g id="lines">
                <rect y="0" x="0" width="100%" height="60" fill="blue"/><rect y="60" x="0" width="98%" height="60" fill="rgb(0,0,200)"/>
                <rect y="150" x="0" width="97%" height="60" fill="blue"/><rect y="210" x="0" width="92%" height="60" fill="rgb(0,0,200)"/>
                <rect y="300" x="0" width="81%" height="60" fill="blue"/><rect y="360" x="0" width="79%" height="60" fill="rgb(0,0,200)"/>
                <rect y="450" x="0" width="81%" height="60" fill="blue"/><rect y="510" x="0" width="78%" height="60" fill="rgb(0,0,200)"/>
                <rect y="600" x="0" width="80%" height="60" fill="blue"/><rect y="660" x="0" width="75%" height="60" fill="rgb(0,0,200)"/>
                <rect y="750" x="0" width="72%" height="60" fill="blue"/><rect y="810" x="0" width="70%" height="60" fill="rgb(0,0,200)"/>
                <rect y="900" x="0" width="40%" height="60" fill="blue"/><rect y="960" x="0" width="37%" height="60" fill="rgb(0,0,200)"/>
                <rect y="1050" x="0" width="32%" height="60" fill="blue"/><rect y="1110" x="0" width="32%" height="60" fill="rgb(0,0,200)"/>

            </g>
        </g>
        <g transform="translate(0,180) scale(0.7)">
            <rect width="100%" height="100%" fill="none"/>
            <g>
                <text y="20" x="300" text-anchor="middle" dominant-baseline="middle" font-size="70px" font-family="russo one" font-weight="900">ITEM 1</text> <text y="85" x="300" dominant-baseline="middle" text-anchor="middle" font-size="60px" font-family="system-ui">Text 1</text>
                <text y="170" x="300" text-anchor="middle" dominant-baseline="middle" font-size="70px" font-family="russo one" font-weight="900">ITEM 2</text> <text y="235" x="300" dominant-baseline="middle" text-anchor="middle" font-size="60px" font-family="system-ui">Text 2</text>
                <text y="320" x="300" text-anchor="middle" dominant-baseline="middle" font-size="70px" font-family="russo one" font-weight="900">ITEM 3</text> <text y="385" x="300" dominant-baseline="middle" text-anchor="middle" font-size="60px" font-family="system-ui">Text 3</text>
                <text y="470" x="300" text-anchor="middle" dominant-baseline="middle" font-size="70px" font-family="russo one" font-weight="900">ITEM 4</text> <text y="535" x="300" dominant-baseline="middle" text-anchor="middle" font-size="60px" font-family="system-ui">Text 4</text>
                <text y="620" x="300" text-anchor="middle" dominant-baseline="middle" font-size="70px" font-family="russo one" font-weight="900">ITEM 5</text> <text y="685" x="300" dominant-baseline="middle" text-anchor="middle" font-size="60px" font-family="system-ui">Text 5</text>
                <text y="770" x="300" text-anchor="middle" dominant-baseline="middle" font-size="70px" font-family="russo one" font-weight="900">ITEM 6</text> <text y="835" x="300" dominant-baseline="middle" text-anchor="middle" font-size="60px" font-family="system-ui">Text 6</text>
                <text y="920" x="300" text-anchor="middle" dominant-baseline="middle" font-size="70px" font-family="russo one" font-weight="900">ITEM 7</text> <text y="985" x="300" dominant-baseline="middle" text-anchor="middle" font-size="60px" font-family="system-ui">Text 7</text>
                <text y="1070" x="300" text-anchor="middle" dominant-baseline="middle" font-size="70px" font-family="russo one" font-weight="900">ITEM 8</text> <text y="1135" x="300" dominant-baseline="middle" text-anchor="middle" font-size="60px" font-family="system-ui">Text 8</text>

            </g>
        </g>
    </g>
</svg>
